# xmcd
#
# Track frame offsets:
#	150
#	18472
#	34465
#	55660
#	71445
#	90952
#	105177
#	125030
#	145572
#	162255
#	180312
#	194172
#
# Disc length: 2804 seconds
#
# Revision: 26
# Processed by: cddbd v1.5.2PL0 Copyright (c) Steve Scherf et al.
# Submitted via: EasyCDDAExtractor 15.3.0.1
#
DISCID=990af20c
DTITLE=Mariah Carey - Daydream
DYEAR=1995
DGENRE=R&B/Pop
TTITLE0=Fantasy
TTITLE1=Underneath The Stars
TTITLE2=One Sweet Day
TTITLE3=Open Arms
TTITLE4=Always Be My Baby
TTITLE5=I Am Free
TTITLE6=When I Saw You
TTITLE7=Long Ago
TTITLE8=Melt Away
TTITLE9=Forever
TTITLE10=Daydream Interlude (Fantasy Sweet Dub Mix)
TTITLE11=Looking In
EXTD=
EXTT0=
EXTT1=
EXTT2=
EXTT3=
EXTT4=
EXTT5=
EXTT6=
EXTT7=
EXTT8=
EXTT9=
EXTT10=
EXTT11=
PLAYORDER=
